# Blender 4.4.3
# www.blender.org
mtllib namelesscharacter.mtl
o Cube.006
v -0.000000 1.063005 -0.385918
v -0.000000 0.143273 -0.404824
v -0.000000 1.063005 0.385918
v 0.582594 0.143273 0.252077
v 0.628757 1.063005 0.190411
v 0.582594 0.143273 -0.252077
v 0.628757 1.063005 -0.190411
v -0.000000 1.787559 -0.355382
v 0.000000 1.787559 0.355382
v 1.556494 0.725983 -0.200837
v 1.885353 0.817213 -0.200837
v -0.000000 2.028970 -0.258691
v 0.000000 2.028970 0.272346
v 0.779483 2.008075 0.290734
v 0.779483 2.008075 -0.331698
v 0.779483 1.716678 0.339075
v 0.779483 1.716678 -0.339075
v 1.556494 0.725983 0.238597
v 1.885353 0.817213 0.238597
v 1.494380 1.507075 0.296984
v 1.040525 1.552663 -0.259224
v 1.212951 1.325856 0.296984
v 1.321954 1.733882 -0.259224
v 1.040525 1.552663 0.296984
v 1.494380 1.507075 -0.259224
v 1.321954 1.733882 0.296984
v 1.212951 1.325856 -0.259224
v 1.598288 0.598375 -0.200837
v 1.927147 0.689605 -0.200837
v 1.598288 0.598375 0.238597
v 1.927147 0.689605 0.238597
v 1.733315 0.186104 -0.313664
v 2.062173 0.277334 -0.313664
v 2.062173 0.277334 0.351425
v -0.000000 2.060441 -0.217429
v 0.000000 2.060441 0.231084
v 0.319894 2.026590 0.162395
v 0.319894 2.026590 -0.148740
v -0.000000 2.360313 -0.243489
v 0.000000 2.360313 0.243489
v 0.319894 2.420339 0.151617
v 0.319894 2.420339 -0.151617
v -0.000000 2.383102 -0.561083
v -0.000000 2.383102 0.561083
v 0.622083 2.384214 0.518692
v 0.622083 2.384214 -0.518692
v -0.000000 3.631486 -0.561083
v -0.000000 3.631486 0.561083
v 0.900698 3.133215 0.518692
v 0.900698 3.133215 -0.518692
v -0.000000 0.143273 0.404824
v 1.733315 0.186104 0.351425
v -0.000000 0.084206 0.404824
v 0.582594 0.084206 0.252077
v 0.000000 0.084206 -0.404824
v 0.582594 0.084206 -0.252077
v 0.494931 -1.105972 0.205615
v 0.087663 -1.105972 0.193287
v 0.087663 -1.105972 -0.193287
v 0.087663 0.084206 -0.165652
v 0.087663 0.084206 0.165652
v 0.494931 0.084206 0.176217
v 0.494931 0.084206 -0.176217
v 0.494931 -1.105972 -0.205615
v 1.770101 0.073785 -0.241825
v 2.098960 0.165015 -0.241825
v 2.098960 0.165015 0.279585
v 1.770101 0.073785 0.279585
v 0.494931 -1.287111 0.205615
v 0.087663 -1.287111 0.193287
v 0.087663 -1.287111 -0.193287
v 0.494931 -1.287111 -0.205615
v 0.488494 -1.105972 0.418256
v 0.081227 -1.105972 0.405928
v 0.488494 -1.287111 0.418256
v 0.081227 -1.287111 0.405928
v -0.582594 0.143273 0.252077
v -0.628757 1.063005 0.190411
v -0.582594 0.143273 -0.252077
v -0.628757 1.063005 -0.190411
v -1.556494 0.725983 -0.200837
v -1.885353 0.817213 -0.200837
v -0.779483 2.008075 0.290734
v -0.779483 2.008075 -0.331698
v -0.779483 1.716678 0.339075
v -0.779483 1.716678 -0.339075
v -1.556494 0.725983 0.238597
v -1.885353 0.817213 0.238597
v -1.494380 1.507075 0.296984
v -1.040525 1.552663 -0.259224
v -1.212951 1.325856 0.296984
v -1.321954 1.733882 -0.259224
v -1.040525 1.552663 0.296984
v -1.494380 1.507075 -0.259224
v -1.321954 1.733882 0.296984
v -1.212951 1.325856 -0.259224
v -1.598288 0.598375 -0.200837
v -1.927147 0.689605 -0.200837
v -1.598288 0.598375 0.238597
v -1.927147 0.689605 0.238597
v -1.733315 0.186104 -0.313665
v -2.062173 0.277334 -0.313665
v -2.062173 0.277334 0.351425
v -0.319894 2.026590 0.162395
v -0.319894 2.026590 -0.148740
v -0.319894 2.420339 0.151617
v -0.319894 2.420339 -0.151617
v -0.622083 2.384214 0.518692
v -0.622083 2.384214 -0.518692
v -0.900698 3.133215 0.518692
v -0.900698 3.133215 -0.518692
v -1.733315 0.186104 0.351425
v -0.582594 0.084206 0.252077
v -0.582594 0.084206 -0.252077
v -0.494931 -1.105972 0.205615
v -0.087663 -1.105972 0.193287
v -0.087663 -1.105972 -0.193287
v -0.087663 0.084206 -0.165652
v -0.087663 0.084206 0.165652
v -0.494931 0.084206 0.176217
v -0.494931 0.084206 -0.176217
v -0.494931 -1.105972 -0.205615
v -1.770101 0.073785 -0.241825
v -2.098960 0.165014 -0.241825
v -2.098960 0.165014 0.279585
v -1.770101 0.073785 0.279585
v -0.494931 -1.287111 0.205615
v -0.087663 -1.287111 0.193287
v -0.087663 -1.287111 -0.193287
v -0.494931 -1.287111 -0.205615
v -0.488494 -1.105972 0.418256
v -0.081227 -1.105972 0.405928
v -0.488494 -1.287111 0.418256
v -0.081227 -1.287111 0.405928
vn 0.9987 -0.0501 -0.0000
vn 0.2761 0.0351 0.9605
vn 0.1431 -0.1000 -0.9846
vn 0.2761 0.0351 -0.9605
vn 0.8700 0.4931 -0.0000
vn 0.1431 -0.1000 0.9846
vn 0.9744 -0.2247 -0.0000
vn 0.0403 0.9992 -0.0000
vn -0.0244 0.1916 -0.9812
vn 0.0128 0.2394 0.9708
vn 0.1475 -0.0724 -0.9864
vn 0.0321 -0.0720 0.9969
vn -0.8678 -0.4970 -0.0000
vn 0.9503 0.3113 -0.0000
vn -0.0000 -0.0000 1.0000
vn 0.4511 0.8925 -0.0000
vn 0.0754 0.0569 0.9955
vn -0.5320 -0.8467 -0.0000
vn -0.7961 -0.6052 -0.0000
vn 0.7961 0.6052 -0.0000
vn -0.0000 -0.0000 -1.0000
vn 0.0321 -0.0720 -0.9969
vn -0.0674 0.2428 0.9677
vn -0.9503 -0.3112 -0.0000
vn 0.1390 -0.5009 0.8543
vn -0.0674 0.2428 -0.9677
vn -0.9503 -0.3113 -0.0000
vn 1.0000 -0.0000 -0.0000
vn 0.0489 0.9915 -0.1208
vn 0.0557 0.9885 0.1405
vn 0.0583 -0.9973 0.0452
vn 0.2448 -0.0404 -0.9687
vn 0.2435 -0.0023 0.9699
vn 0.0583 -0.9973 -0.0452
vn -0.1187 -0.9929 -0.0000
vn 0.4841 0.8750 -0.0000
vn 0.0532 -0.0074 0.9986
vn 0.9373 -0.3486 -0.0000
vn 0.0532 -0.0074 -0.9986
vn 0.2536 -0.0000 0.9673
vn 0.2536 -0.0000 -0.9673
vn -0.0000 -1.0000 -0.0000
vn -0.0281 0.0239 0.9993
vn -1.0000 -0.0000 -0.0000
vn -0.0281 0.0239 -0.9993
vn -0.0000 1.0000 -0.0000
vn 0.2673 -0.9636 -0.0000
vn 0.1390 -0.5009 -0.8543
vn -0.0303 -0.0000 -0.9995
vn -0.0303 -0.0000 0.9995
vn 0.9995 -0.0000 0.0303
vn -0.9995 -0.0000 -0.0303
vn -0.9987 -0.0501 -0.0000
vn -0.2761 0.0351 0.9605
vn -0.1431 -0.1000 -0.9846
vn -0.2761 0.0351 -0.9605
vn -0.8700 0.4931 -0.0000
vn -0.1431 -0.1000 0.9846
vn -0.9744 -0.2247 -0.0000
vn -0.0403 0.9992 -0.0000
vn 0.0244 0.1916 -0.9812
vn -0.0128 0.2394 0.9708
vn -0.1475 -0.0724 -0.9864
vn -0.0321 -0.0720 0.9969
vn 0.8678 -0.4970 -0.0000
vn -0.9503 0.3113 -0.0000
vn -0.4511 0.8925 -0.0000
vn -0.0754 0.0569 0.9955
vn 0.5320 -0.8467 -0.0000
vn 0.7961 -0.6052 -0.0000
vn -0.7961 0.6052 -0.0000
vn -0.0321 -0.0720 -0.9969
vn 0.0674 0.2428 0.9677
vn 0.9503 -0.3112 -0.0000
vn -0.1390 -0.5009 0.8543
vn 0.0674 0.2428 -0.9677
vn 0.9503 -0.3113 -0.0000
vn -0.0489 0.9915 -0.1208
vn -0.0557 0.9885 0.1405
vn -0.0583 -0.9973 0.0452
vn -0.2448 -0.0404 -0.9687
vn -0.2435 -0.0023 0.9699
vn -0.0583 -0.9973 -0.0452
vn 0.1187 -0.9929 -0.0000
vn -0.4841 0.8750 -0.0000
vn -0.0532 -0.0074 0.9986
vn -0.9373 -0.3486 -0.0000
vn -0.0532 -0.0074 -0.9986
vn -0.2536 -0.0000 0.9673
vn -0.2536 -0.0000 -0.9673
vn 0.0281 0.0239 0.9993
vn 0.0281 0.0239 -0.9993
vn -0.2673 -0.9636 -0.0000
vn -0.1390 -0.5009 -0.8543
vn 0.0303 -0.0000 -0.9995
vn 0.0303 -0.0000 0.9995
vn -0.9995 -0.0000 0.0303
vn 0.9995 -0.0000 -0.0303
vt 0.437445 0.339371
vt 0.345620 0.263818
vt 0.330084 0.315585
vt 0.404184 0.360037
vt 0.310681 0.401470
vt 0.399878 0.401471
vt 0.458458 0.081593
vt 0.121294 0.000219
vt 0.255346 0.243300
vt 0.525614 0.390171
vt 0.243465 0.272788
vt 0.243504 0.272439
vt 0.243537 0.272539
vt 0.243580 0.272766
vt 0.249976 0.300723
vt 0.195969 0.401470
vt 0.228836 0.250301
vt 0.088982 0.223046
vt 0.146854 0.331758
vt 0.225656 0.291010
vt 0.016567 0.093825
vt 0.128234 0.401470
vt 0.243808 0.272782
vt 0.243620 0.273744
vt 0.243487 0.272878
vt 0.243494 0.272667
vt 0.243519 0.272998
vt 0.243522 0.272633
vt 0.326981 0.981033
vt 0.373393 0.932595
vt 0.372368 0.845895
vt 0.326727 0.781796
vt 0.243411 0.273202
vt 0.243341 0.272923
vt 0.456176 0.934941
vt 0.415750 0.891820
vt 0.413666 0.894648
vt 0.498071 0.981033
vt 0.489619 0.818058
vt 0.449990 0.853684
vt 0.415060 0.891567
vt 0.413741 0.892822
vt 0.412699 0.891103
vt 0.412148 0.888334
vt 0.573272 0.401655
vt 0.651961 0.423382
vt 0.658183 0.366828
vt 0.585703 0.348849
vt 0.000219 0.109608
vt 0.116553 0.401470
vt 0.605799 0.482292
vt 0.634627 0.534543
vt 0.691361 0.468823
vt 0.555229 0.459516
vt 0.669476 0.292336
vt 0.603200 0.286863
vt 0.728629 0.366586
vt 0.723341 0.296784
vt 0.762511 0.479552
vt 0.921945 0.608704
vt 0.847875 0.308005
vt 0.798072 0.390301
vt 0.407939 0.362613
vt 0.436957 0.346847
vt 0.403866 0.401471
vt 0.518510 0.401471
vt 0.454368 0.391197
vt 0.421064 0.393318
vt 0.435752 0.355527
vt 0.414309 0.366731
vt 0.861622 0.782396
vt 0.961440 0.890120
vt 0.964214 0.681970
vt 0.860996 0.782019
vt 0.757085 0.685062
vt 0.860493 0.782866
vt 0.861211 0.782733
vt 0.757085 0.892009
vt 0.000219 0.803160
vt 0.070230 0.843979
vt 0.081570 0.849516
vt 0.125443 0.835560
vt 0.414185 0.888663
vt 0.413180 0.890658
vt 0.090752 0.868614
vt 0.050447 0.863252
vt 0.042400 0.904356
vt 0.083389 0.910129
vt 0.114766 0.943792
vt 0.000219 0.946222
vt 0.068740 0.850432
vt 0.078753 0.854873
vt 0.437445 0.463570
vt 0.404184 0.442904
vt 0.330083 0.487356
vt 0.345620 0.539123
vt 0.458458 0.721348
vt 0.255345 0.559642
vt 0.121294 0.802723
vt 0.525614 0.412770
vt 0.243459 0.530145
vt 0.243611 0.530183
vt 0.243497 0.530735
vt 0.243464 0.530397
vt 0.249975 0.502217
vt 0.228837 0.552640
vt 0.225657 0.511930
vt 0.146854 0.471182
vt 0.088982 0.579895
vt 0.016567 0.709116
vt 0.243617 0.529197
vt 0.243811 0.530160
vt 0.243490 0.530054
vt 0.243520 0.530267
vt 0.243509 0.529949
vt 0.243538 0.530443
vt 0.717765 0.821303
vt 0.518902 0.815299
vt 0.581647 0.862690
vt 0.668188 0.866359
vt 0.243408 0.529736
vt 0.243340 0.530014
vt 0.668440 0.949036
vt 0.628972 0.905710
vt 0.625838 0.907810
vt 0.713271 0.992032
vt 0.550682 0.979090
vt 0.587397 0.940444
vt 0.627077 0.905995
vt 0.624859 0.907671
vt 0.625973 0.904250
vt 0.623182 0.903449
vt 0.592507 0.168718
vt 0.596108 0.222847
vt 0.670555 0.217001
vt 0.673694 0.160193
vt 0.000219 0.693333
vt 0.637821 0.094508
vt 0.720014 0.121830
vt 0.674829 0.047693
vt 0.584199 0.108681
vt 0.740007 0.228795
vt 0.791961 0.122917
vt 0.812400 0.216792
vt 0.970420 0.021667
vt 0.436957 0.456094
vt 0.407938 0.440328
vt 0.421064 0.409623
vt 0.454368 0.411744
vt 0.435752 0.447414
vt 0.414309 0.436210
vt 0.605756 0.698927
vt 0.606412 0.698794
vt 0.709893 0.796671
vt 0.709893 0.589691
vt 0.605913 0.699661
vt 0.502674 0.799814
vt 0.605336 0.699265
vt 0.506232 0.591041
vt 0.144923 0.957452
vt 0.270147 0.925052
vt 0.226275 0.911096
vt 0.214934 0.916633
vt 0.624086 0.904705
vt 0.625724 0.904690
vt 0.235457 0.891998
vt 0.228094 0.850483
vt 0.187104 0.856256
vt 0.195152 0.897360
vt 0.259470 0.816820
vt 0.144923 0.814390
vt 0.223457 0.905739
vt 0.213444 0.910180
s 0
usemtl Material.001
f 6/1/1 7/2/1 5/3/1 4/4/1
f 5/3/2 3/5/2 51/6/2 4/4/2
f 1/7/3 8/8/3 17/9/3 7/2/3
f 6/1/4 2/10/4 1/7/4 7/2/4
f 20/11/5 19/12/5 11/13/5 25/14/5
f 5/3/6 16/15/6 9/16/6 3/5/6
f 7/2/7 17/9/7 16/15/7 5/3/7
f 15/17/8 38/18/8 37/19/8 14/20/8
f 8/8/9 12/21/9 15/17/9 17/9/9
f 16/15/10 14/20/10 13/22/10 9/16/10
f 15/17/11 23/23/11 21/24/11 17/9/11
f 22/25/12 18/26/12 19/12/12 20/11/12
f 27/27/13 10/28/13 18/26/13 22/25/13
f 19/29/14 31/30/14 29/31/14 11/32/14
f 24/33/15 22/25/15 20/11/15 26/34/15
f 14/20/16 26/34/16 23/23/16 15/17/16
f 16/15/17 24/33/17 26/34/17 14/20/17
f 17/9/18 21/24/18 24/33/18 16/15/18
f 21/24/19 27/27/19 22/25/19 24/33/19
f 26/34/20 20/11/20 25/14/20 23/23/20
f 23/23/21 25/14/21 27/27/21 21/24/21
f 25/14/22 11/13/22 10/28/22 27/27/22
f 30/35/23 52/36/23 34/37/23 31/30/23
f 18/38/15 30/35/15 31/30/15 19/29/15
f 10/39/24 28/40/24 30/35/24 18/38/24
f 11/32/21 29/31/21 28/40/21 10/39/21
f 52/36/25 68/41/25 67/42/25 34/37/25
f 31/30/14 34/37/14 33/43/14 29/31/14
f 29/31/26 33/43/26 32/44/26 28/40/26
f 28/40/27 32/44/27 52/36/27 30/35/27
f 38/45/28 42/46/28 41/47/28 37/48/28
f 12/21/29 35/49/29 38/18/29 15/17/29
f 14/20/30 37/19/30 36/50/30 13/22/30
f 39/51/31 43/52/31 46/53/31 42/46/31
f 35/54/32 39/51/32 42/46/32 38/45/32
f 37/48/33 41/47/33 40/55/33 36/56/33
f 41/47/34 45/57/34 44/58/34 40/55/34
f 42/46/35 46/53/35 45/57/35 41/47/35
f 50/59/36 47/60/36 48/61/36 49/62/36
f 45/57/37 49/62/37 48/61/37 44/58/37
f 46/53/38 50/59/38 49/62/38 45/57/38
f 43/52/39 47/60/39 50/59/39 46/53/39
f 4/4/28 54/63/28 56/64/28 6/1/28
f 51/6/40 53/65/40 54/63/40 4/4/40
f 6/1/41 56/64/41 55/66/41 2/10/41
f 55/66/42 60/67/42 61/68/42 53/65/42
f 56/64/42 63/69/42 60/67/42 55/66/42
f 53/65/42 61/68/42 62/70/42 54/63/42
f 54/63/42 62/70/42 63/69/42 56/64/42
f 61/71/43 58/72/43 57/73/43 62/74/43
f 62/74/28 57/73/28 64/75/28 63/76/28
f 60/77/44 59/78/44 58/72/44 61/71/44
f 63/76/45 64/75/45 59/78/45 60/77/45
f 58/79/46 74/80/46 73/81/46 57/82/46
f 65/83/47 66/84/47 67/42/47 68/41/47
f 32/44/24 65/83/24 68/41/24 52/36/24
f 33/43/48 66/84/48 65/83/48 32/44/48
f 34/37/14 67/42/14 66/84/14 33/43/14
f 69/85/42 70/86/42 71/87/42 72/88/42
f 57/82/28 69/85/28 72/88/28 64/89/28
f 59/90/44 71/87/44 70/86/44 58/79/44
f 64/89/49 72/88/49 71/87/49 59/90/49
f 74/80/50 76/91/50 75/92/50 73/81/50
f 57/82/51 73/81/51 75/92/51 69/85/51
f 70/86/52 76/91/52 74/80/52 58/79/52
f 69/85/42 75/92/42 76/91/42 70/86/42
f 79/93/53 77/94/53 78/95/53 80/96/53
f 78/95/54 77/94/54 51/6/54 3/5/54
f 1/97/55 80/96/55 86/98/55 8/99/55
f 79/93/56 80/96/56 1/97/56 2/100/56
f 89/101/57 94/102/57 82/103/57 88/104/57
f 78/95/58 3/5/58 9/16/58 85/105/58
f 80/96/59 78/95/59 85/105/59 86/98/59
f 84/106/60 83/107/60 104/108/60 105/109/60
f 8/99/61 86/98/61 84/106/61 12/110/61
f 85/105/62 9/16/62 13/22/62 83/107/62
f 84/106/63 86/98/63 90/111/63 92/112/63
f 91/113/64 89/101/64 88/104/64 87/114/64
f 96/115/65 91/113/65 87/114/65 81/116/65
f 88/117/66 82/118/66 98/119/66 100/120/66
f 93/121/15 95/122/15 89/101/15 91/113/15
f 83/107/67 84/106/67 92/112/67 95/122/67
f 85/105/68 83/107/68 95/122/68 93/121/68
f 86/98/69 85/105/69 93/121/69 90/111/69
f 90/111/70 93/121/70 91/113/70 96/115/70
f 95/122/71 92/112/71 94/102/71 89/101/71
f 92/112/21 90/111/21 96/115/21 94/102/21
f 94/102/72 96/115/72 81/116/72 82/103/72
f 99/123/73 100/120/73 103/124/73 112/125/73
f 87/126/15 88/117/15 100/120/15 99/123/15
f 81/127/74 87/126/74 99/123/74 97/128/74
f 82/118/21 81/127/21 97/128/21 98/119/21
f 112/125/75 103/124/75 125/129/75 126/130/75
f 100/120/66 98/119/66 102/131/66 103/124/66
f 98/119/76 97/128/76 101/132/76 102/131/76
f 97/128/77 99/123/77 112/125/77 101/132/77
f 105/133/44 104/134/44 106/135/44 107/136/44
f 12/110/78 84/106/78 105/109/78 35/137/78
f 83/107/79 13/22/79 36/50/79 104/108/79
f 39/138/80 107/136/80 109/139/80 43/140/80
f 35/141/81 105/133/81 107/136/81 39/138/81
f 104/134/82 36/56/82 40/55/82 106/135/82
f 106/135/83 40/55/83 44/58/83 108/142/83
f 107/136/84 106/135/84 108/142/84 109/139/84
f 111/143/85 110/144/85 48/61/85 47/145/85
f 108/142/86 44/58/86 48/61/86 110/144/86
f 109/139/87 108/142/87 110/144/87 111/143/87
f 43/140/88 109/139/88 111/143/88 47/145/88
f 77/94/44 79/93/44 114/146/44 113/147/44
f 51/6/89 77/94/89 113/147/89 53/65/89
f 79/93/90 2/100/90 55/66/90 114/146/90
f 55/66/42 53/65/42 119/148/42 118/149/42
f 114/146/42 55/66/42 118/149/42 121/150/42
f 53/65/42 113/147/42 120/151/42 119/148/42
f 113/147/42 114/146/42 121/150/42 120/151/42
f 119/152/91 120/153/91 115/154/91 116/155/91
f 120/153/44 121/156/44 122/157/44 115/154/44
f 118/158/28 119/152/28 116/155/28 117/159/28
f 121/156/92 118/158/92 117/159/92 122/157/92
f 116/160/46 115/161/46 131/162/46 132/163/46
f 123/164/93 126/130/93 125/129/93 124/165/93
f 101/132/77 112/125/77 126/130/77 123/164/77
f 102/131/94 101/132/94 123/164/94 124/165/94
f 103/124/66 102/131/66 124/165/66 125/129/66
f 127/166/42 130/167/42 129/168/42 128/169/42
f 115/161/44 122/170/44 130/167/44 127/166/44
f 117/171/28 116/160/28 128/169/28 129/168/28
f 122/170/95 117/171/95 129/168/95 130/167/95
f 132/163/96 131/162/96 133/172/96 134/173/96
f 115/161/97 127/166/97 133/172/97 131/162/97
f 128/169/98 116/160/98 132/163/98 134/173/98
f 127/166/42 128/169/42 134/173/42 133/172/42
